<svg data-v-0dd9719b="" version="1.0" xmlns="http://www.w3.org/2000/svg" xmlns:xlink="http://www.w3.org/1999/xlink" width="100%" height="100%" viewBox="0 0 340.000000 250.000000" preserveAspectRatio="xMidYMid meet" color-interpolation-filters="sRGB" style="margin: auto;"> <rect data-v-0dd9719b="" x="0" y="0" width="100%" height="100%" fill="#ffffff" fill-opacity="1" class="background"></rect> <rect data-v-0dd9719b="" x="0" y="0" width="100%" height="100%" fill="url(#watermark)" fill-opacity="1" class="watermarklayer"></rect> <g data-v-0dd9719b="" fill="#b22166" class="icon-text-wrapper icon-svg-group iconsvg" transform="translate(47.780006408691406,95.26788520812988)"><g class="iconsvg-imagesvg" transform="translate(0,0)"><g><rect fill="#b22166" fill-opacity="0" stroke-width="2" x="0" y="0" width="60" height="59.46422731191961" class="image-rect"></rect> <svg filter="url(#colors609036985)" x="0" y="0" width="60" height="59.46422731191961" filtersec="colorsf3781175419" class="image-svg-svg primary" style="overflow: visible;"><svg xmlns="http://www.w3.org/2000/svg" xmlns:xlink="http://www.w3.org/1999/xlink" xmlns:sketch="http://www.bohemiancoding.com/sketch/ns" viewBox="3 3 93.79081 92.98911" version="1.1" x="0px" y="0px"><title>picture-fill</title><desc>Created with Sketch.</desc><g stroke="none" stroke-width="1" fill-rule="evenodd" sketch:type="MSPage"><path d="M69.7391892,55.49 C68.96,55.6145536 68.2797297,56.0340179 67.8232432,56.67125 L61.3667568,65.705 C61.3667568,65.705 77.8627027,77.3077679 92.6794595,87.8305357 C94.0091892,85.7677679 94.7908108,83.3265179 94.7908108,80.7028571 L94.7908108,72.2966964 L71.93,56.01875 C71.2959459,55.5534821 70.5159459,55.3678571 69.7391892,55.49 L69.7391892,55.49 Z M81.3848649,5 L41.4224324,5 C41.852973,7.03223214 42.0824324,9.13758929 42.0824324,11.2959821 C42.0824324,28.1372321 28.3075676,41.7899107 11.3145946,41.7899107 C9.14972973,41.7899107 7.03837838,41.5657143 5,41.1446429 L5,80.7028571 C5,82.7141964 5.46702703,84.6154464 6.27783784,86.32625 L33.1910811,55.9600893 C36.3897297,52.4283929 41.7418919,51.8433929 45.6402703,54.5972321 L56.0843243,61.9740179 L62.5302703,52.9563393 C64.0018919,50.8967857 66.1975676,49.5419643 68.7110811,49.1425893 C71.2278378,48.7432143 73.7372973,49.3491071 75.7845946,50.8477679 L94.7908108,64.7254464 L94.7908108,18.28625 C94.7908108,10.9600893 88.777027,5 81.3848649,5 L81.3848649,5 Z M38.0186486,60.2551786 L9.89486486,90.9596429 C12.2113514,92.85125 15.1772973,93.9891071 18.4067568,93.9891071 L81.3848649,93.9891071 C83.6251351,93.9891071 85.7348649,93.4346429 87.5924324,92.4679464 L41.8756757,59.8325 C40.6675676,58.9791071 39.0086486,59.1599107 38.0186486,60.2551786 L38.0186486,60.2551786 Z M35.5854054,11.2959821 C35.5854054,9.11669643 35.2878378,7.00732143 34.7397297,5 L18.4067568,5 C11.0137838,5 5,10.9600893 5,18.28625 L5,34.5232143 C7.01405405,35.06 9.12945946,35.3508929 11.3145946,35.3508929 C24.7189189,35.3508929 35.5854054,24.580625 35.5854054,11.2959821 L35.5854054,11.2959821 Z" sketch:type="MSShapeGroup"></path></g></svg></svg> <defs><filter id="colors609036985"><feColorMatrix type="matrix" values="0 0 0 0 0.9921875  0 0 0 0 0.20703125  0 0 0 0 0.43359375  0 0 0 1 0" class="icon-fecolormatrix"></feColorMatrix></filter> <filter id="colorsf3781175419"><feColorMatrix type="matrix" values="0 0 0 0 0.99609375  0 0 0 0 0.99609375  0 0 0 0 0.99609375  0 0 0 1 0" class="icon-fecolormatrix"></feColorMatrix></filter> <filter id="colorsb8333000810"><feColorMatrix type="matrix" values="0 0 0 0 0  0 0 0 0 0  0 0 0 0 0  0 0 0 1 0" class="icon-fecolormatrix"></feColorMatrix></filter></defs></g></g> <g transform="translate(67,1.1508636474609375)"><g data-gra="path-name" fill-rule="" class="tp-name iconsvg-namesvg" transform="translate(0,0)"><g transform="scale(1)"><g><path d="M41.8-30.69L41.8-30.69 10.71-30.69 10.71-20.97Q10.71-18.18 10.57-16.02L10.57-16.02Q10.48-13.9 9.95-10.93L9.95-10.93Q9.45-8.01 8.5-5.67L8.5-5.67Q7.6-3.33 5.89-0.81 4.18 1.71 1.8 3.65L1.8 3.65 1.21 3.28Q4.41-1.53 5.4-7.42L5.4-7.42Q6.43-13.32 6.43-20.97L6.43-20.97 6.43-31.99 23.63-31.99Q23.04-33.48 21.6-35.1L21.6-35.1Q20.2-36.77 18.77-37.89L18.77-37.89 19.13-38.25Q25.2-38.07 26.86-35.32L26.86-35.32Q27.9-33.7 26.82-32.4L26.82-32.4Q26.64-32.17 26.37-31.99L26.37-31.99 35.91-31.99Q36-35.32 39.55-35.32L39.55-35.32Q43.11-34.74 43.02-31.41L43.02-31.41Q42.88-30.69 41.8-30.69ZM16.83-7.65L16.83-0.32 32.89-0.32 32.89-7.65 16.83-7.65ZM12.91-8.96L32.76-8.96Q32.98-11.21 35.95-11.21L35.95-11.21Q38.92-10.44 38.7-8.19L38.7-8.19Q38.16-7.6 37.03-7.38L37.03-7.38 37.03 2.65Q37.03 2.79 36.63 2.97L36.63 2.97Q36.23 3.19 35.37 3.38L35.37 3.38Q34.56 3.6 33.66 3.6L33.66 3.6 32.89 3.6 32.89 0.99 16.83 0.99 16.83 2.83Q16.83 2.97 16.47 3.19 16.11 3.42 15.3 3.6L15.3 3.6Q14.54 3.78 13.59 3.78L13.59 3.78 12.91 3.78 12.91-8.96ZM26.1-14.71L32.89-14.71 32.89-19.39 26.1-19.39 26.1-14.71ZM32.89-24.84L26.1-24.84 26.1-20.7 32.89-20.7 32.89-24.84ZM36.81-20.7L38.02-20.7Q37.98-23.67 40.91-23.67L40.91-23.67Q43.88-23.09 43.92-20.11L43.92-20.11Q43.78-19.39 42.75-19.39L42.75-19.39 36.81-19.39 36.81-12.6Q36.77-12.38 35.59-11.97 34.42-11.56 33.52-11.56L33.52-11.56 32.89-11.56 32.89-13.41 26.1-13.41 26.1-11.12Q26.1-10.8 24.97-10.39 23.85-9.99 22.72-9.99L22.72-9.99 21.96-9.99 21.96-13.41 12.78-13.41 12.38-14.71 21.96-14.71 21.96-19.39 11.21-19.39 10.84-20.7 21.96-20.7 21.96-24.84 13.09-24.84 12.69-26.14 21.96-26.14 21.96-30.29 26.1-29.74 26.1-26.14 32.45-26.14Q32.71-28.26 35.87-28.26L35.87-28.26Q38.97-27.13 38.7-25.02L38.7-25.02Q38.2-24.39 36.81-24.12L36.81-24.12 36.81-20.7ZM80.78-1.84L80.78-27.77 85.28-27.13 85.28 2.43Q85.28 2.79 84.02 3.28L84.02 3.28Q82.8 3.82 81.63 3.82L81.63 3.82 80.78 3.82 80.78-0.54 54.36-0.54Q54.36 1.62 51.12 1.62L51.12 1.62Q47.88 1.13 47.88-1.03L47.88-1.03Q48.51-1.71 49.59-2.34L49.59-2.34 49.59-27.72 54.05-27.04 54.05-1.84 65.07-1.84 65.07-37.08 69.61-36.49 69.61-1.84 80.78-1.84ZM102.51-14.85L102.51-14.85 106.2-12.11Q100.66-2.97 91.94 1.3L91.94 1.3 91.44 0.81Q94.59-1.84 97.56-6.03L97.56-6.03Q100.58-10.21 102.51-14.85ZM131.49-17.82L131.49-17.82 116.19-17.82 116.19-1.48Q116.19 1.08 114.97 2.29L114.97 2.29Q113.81 3.51 109.94 3.82L109.94 3.82Q109.66 1.71 108.72 0.9L108.72 0.9Q107.55-0.14 104.36-0.58L104.36-0.58 104.36-1.17Q109.71-0.81 110.79-0.81L110.79-0.81Q111.42-0.81 111.64-0.99L111.64-0.99Q111.87-1.21 111.87-1.71L111.87-1.71 111.87-17.82 101.25-17.82Q101.07-16.02 98.19-16.02L98.19-16.02Q95.31-16.79 95.49-18.59L95.49-18.59Q96.17-19.17 96.89-19.53L96.89-19.53Q97.69-22.81 98.5-27.63L98.5-27.63Q99.36-32.49 99.54-35.1L99.54-35.1 104.89-33.8Q117.36-35.46 125.23-37.89L125.23-37.89 129.33-33.57Q128.52-32.89 126.63-33.75L126.63-33.75Q115.61-32.45 103.59-32.58L103.59-32.58Q102.56-25.24 101.2-19.13L101.2-19.13 111.87-19.13 111.87-30.11 116.19-29.52 116.19-19.13 125.28-19.13Q125.41-22.41 129.1-22.41L129.1-22.41Q132.84-21.82 132.7-18.54L132.7-18.54Q132.53-17.82 131.49-17.82ZM119.43-14.17L119.43-14.17 119.92-14.54Q128.97-10.71 131.99-5.44L131.99-5.44Q133.69-2.43 132.7-0.54L132.7-0.54Q131.85 0.99 130 0.32L130 0.32Q129.6 0.14 129.15-0.14L129.15-0.14Q126.99-6.03 119.43-14.17ZM159.62-20.2L171.05-20.2Q171.27-23.45 175-23.45L175-23.45Q178.78-22.86 178.56-19.62L178.56-19.62Q178.38-18.9 177.3-18.9L177.3-18.9 137.43-18.9 137.07-20.2 155.29-20.2 155.29-24.97 142.34-24.97 141.97-26.28 155.29-26.28 155.29-30.55 139.91-30.55 139.54-31.86 155.29-31.86 155.29-37.93 159.62-37.39 159.62-31.86 169.02-31.86Q169.16-35.1 172.8-35.1L172.8-35.1Q176.49-34.52 176.35-31.27L176.35-31.27Q176.22-30.55 175.19-30.55L175.19-30.55 159.62-30.55 159.62-26.28 167.09-26.28Q167.22-29.34 170.78-29.34L170.78-29.34Q174.33-28.75 174.19-25.7L174.19-25.7Q174.01-24.97 172.94-24.97L172.94-24.97 159.62-24.97 159.62-20.2ZM164.2-12.87L164.2-12.87 151.38-12.87Q150.16-11.52 150.12-11.47L150.12-11.47Q153.09-8.01 157.54-5.67L157.54-5.67Q161.82-8.96 164.2-12.87ZM168.62-16.61L168.62-16.61Q172.08-15.07 171.41-12.64L171.41-12.64Q171-12.06 169.38-12.01L169.38-12.01Q166.14-7.42 161.28-4.05L161.28-4.05Q168.39-1.53 178.65-0.85L178.65-0.85 178.6-0.32Q175.72 0.58 175.41 3.69L175.41 3.69Q164.52 2.07 157.95-2.07L157.95-2.07Q149.58 2.48 137.07 3.96L137.07 3.96 136.8 3.24Q147.91 0.77 155.25-4.05L155.25-4.05Q152.24-6.52 149.4-10.71L149.4-10.71Q144.54-5.89 139.23-3.51L139.23-3.51 138.82-3.96Q142.38-6.75 145.44-10.98 148.5-15.21 149.94-18.9L149.94-18.9 154.26-17.55Q153.5-15.52 152.41-14.17L152.41-14.17 164.38-14.17Q165.06-16.61 168.62-16.61Z" transform="translate(-1.2100000381469727, 38.25)"></path></g> <!----> <!----> <!----> <!----> <!----> <!----> <!----></g></g> <g data-gra="path-slogan" fill-rule="" class="tp-slogan iconsvg-slogansvg" fill="#fe356f" transform="translate(36.57499313354492,48.209999084472656)"><!----> <!----> <g transform="scale(1, 1)"><g transform="scale(1)"><path d="M3.09-7.59L0.19-7.59L0.19-8.58L7.13-8.58L7.13-7.59L4.22-7.59L4.22 0L3.09 0L3.09-7.59ZM13.83 0L12.98-2.48L9.52-2.48L8.63 0L7.45 0L10.69-8.58L12-8.58L15.09 0L13.83 0ZM11.25-7.31L9.89-3.52L12.56-3.52L11.30-7.31L11.25-7.31ZM17.53-8.58L21.84-1.64L21.84-8.58L22.97-8.58L22.97 0L21.66 0L17.30-6.94L17.25-6.94L17.25 0L16.13 0L16.13-8.58L17.53-8.58ZM31.17-3.61L28.55-3.61L28.55-4.59L32.30-4.59L32.30 0L31.55 0L31.27-1.08Q30.28 0.09 28.45 0.14L28.45 0.14Q26.72 0.14 25.78-0.75L25.78-0.75Q24.38-2.06 24.42-4.36L24.42-4.36Q24.75-8.63 28.50-8.81L28.50-8.81Q31.69-8.63 32.16-6L32.16-6L31.03-6Q30.56-7.78 28.45-7.83L28.45-7.83Q25.78-7.64 25.64-4.31L25.64-4.31Q25.64-0.75 28.50-0.75L28.50-0.75Q29.53-0.75 30.28-1.31L30.28-1.31Q31.22-2.06 31.17-3.61L31.17-3.61ZM40.36-6.09L40.36-6.09L39.28-6.09Q39.19-7.73 37.13-7.83L37.13-7.83Q35.20-7.78 35.20-6.33L35.20-6.33Q35.20-5.39 36.23-5.25L36.23-5.25L38.67-4.69Q40.59-4.22 40.59-2.34L40.59-2.34Q40.55 0.05 37.22 0.14L37.22 0.14Q35.39 0.14 34.64-0.61L34.64-0.61Q33.70-1.31 33.75-2.77L33.75-2.77L34.88-2.77Q34.92-0.80 37.22-0.75L37.22-0.75Q39.47-0.80 39.52-2.20L39.52-2.20Q39.70-3.38 37.64-3.75L37.64-3.75L35.86-4.13Q34.03-4.64 34.03-6.19L34.03-6.19Q34.17-8.72 37.03-8.81L37.03-8.81Q40.27-8.81 40.36-6.09ZM43.22-5.06L47.72-5.06L47.72-8.58L48.89-8.58L48.89 0L47.72 0L47.72-3.98L43.22-3.98L43.22 0L42.05 0L42.05-8.58L43.22-8.58L43.22-5.06ZM56.34 0L55.50-2.48L52.03-2.48L51.14 0L49.97 0L53.20-8.58L54.52-8.58L57.61 0L56.34 0ZM53.77-7.31L52.41-3.52L55.08-3.52L53.81-7.31L53.77-7.31ZM60.05-8.58L64.36-1.64L64.36-8.58L65.48-8.58L65.48 0L64.17 0L59.81-6.94L59.77-6.94L59.77 0L58.64 0L58.64-8.58L60.05-8.58ZM70.59-8.58L71.77-8.58L71.77-1.03L76.13-1.03L76.13 0L70.59 0L70.59-8.58ZM78.56-1.03L83.72-1.03L83.72 0L77.39 0L77.39-8.58L83.63-8.58L83.63-7.59L78.56-7.59L78.56-4.92L83.25-4.92L83.25-3.89L78.56-3.89L78.56-1.03ZM93.47-8.58L93.47 0L92.34 0L92.34-5.06Q92.34-5.77 92.34-7.22L92.34-7.22L89.91 0L88.73 0L86.34-7.22L86.30-7.22Q86.30-6.70 86.34-5.67L86.34-5.67Q86.34-5.16 86.34-5.06L86.34-5.06L86.34 0L85.17 0L85.17-8.58L86.86-8.58L89.34-1.31L91.78-8.58L93.47-8.58ZM100.83 0L99.98-2.48L96.52-2.48L95.63 0L94.45 0L97.69-8.58L99-8.58L102.09 0L100.83 0ZM98.25-7.31L96.89-3.52L99.56-3.52L98.30-7.31L98.25-7.31ZM103.31-8.58L104.48-8.58L104.48 0L103.31 0L103.31-8.58Z" transform="translate(-0.1875, 8.8125)"></path></g></g></g></g></g><defs v-gra="od"></defs></svg>